<svg xmlns="http://www.w3.org/2000/svg" width="1423" height="1432" viewBox="0 0 1423 1432" version="1.1"><path d="M 864.585 195.038 C 806.563 199.074, 746.529 214.351, 682 241.501 C 578.009 285.254, 515 353.741, 515 423.021 C 515 447.036, 522.142 467.646, 537.689 488.500 C 545.406 498.851, 581.804 535.666, 599.535 551.055 C 606.154 556.800, 621.229 569.797, 633.035 579.939 C 673.373 614.590, 694.454 637.686, 701.696 655.164 C 705.500 664.345, 706.009 676.331, 702.942 684.469 C 696.819 700.716, 675.314 711.386, 641.500 714.953 C 620.056 717.215, 557.794 717.971, 391 717.995 C 217.826 718.021, 202.604 718.284, 185.500 721.554 C 167.812 724.936, 152.603 735.428, 148.154 747.319 C 145.545 754.291, 145.359 762.764, 147.667 769.537 C 150.938 779.137, 163.179 787.955, 178.088 791.451 C 193.128 794.978, 205.765 795.149, 421.500 794.732 C 608.215 794.371, 635.587 794.126, 651 792.679 C 669.033 790.987, 689.704 788.356, 692.763 787.364 C 693.718 787.054, 692.479 788.533, 690.008 790.650 C 664.157 812.804, 637.281 839.228, 620.020 859.462 C 572.979 914.605, 545.434 972.521, 538.924 1029.976 C 537.276 1044.515, 538.270 1070.696, 540.945 1083.199 C 555.660 1151.980, 616.834 1202.469, 703 1216.949 C 735.845 1222.469, 736.851 1222.500, 881.500 1222.500 C 1019.849 1222.500, 1023.026 1222.419, 1038.613 1218.471 C 1041.851 1217.651, 1048.166 1215.186, 1052.648 1212.992 C 1067.178 1205.880, 1074.394 1195.299, 1074.466 1181 C 1074.510 1172.136, 1072.072 1166.277, 1065.962 1160.561 C 1057.742 1152.872, 1045.206 1148.874, 1023.573 1147.041 C 1016.629 1146.453, 961.160 1145.838, 893 1145.595 C 815.227 1145.317, 770.891 1144.785, 764 1144.049 C 740.995 1141.590, 715.441 1134.413, 701.596 1126.523 C 679.723 1114.059, 664.884 1095.290, 658.881 1072.500 C 654.332 1055.226, 655.477 1026.561, 661.569 1005.235 C 684.844 923.753, 762.612 838.202, 868.711 777.364 C 929.829 742.319, 996.635 715.372, 1054 702.627 C 1073.715 698.247, 1083.940 696.870, 1101 696.299 C 1114.460 695.849, 1118.693 696.053, 1123.975 697.410 C 1153.400 704.970, 1149.435 726.039, 1106.175 792 C 1078.235 834.601, 1073.605 853.447, 1087.634 867.476 C 1096.915 876.757, 1111.011 881.385, 1130 881.385 C 1163.890 881.385, 1173.794 872.404, 1214.242 805 C 1245.942 752.173, 1254.569 731.980, 1255.683 708 C 1256.604 688.158, 1251.664 674.776, 1238.522 661.521 C 1206.546 629.271, 1141.857 616.713, 1058.500 626.575 C 985.900 635.164, 909.670 659.290, 833.596 697.754 L 810.364 709.500 812.664 702.901 C 816.966 690.558, 818.262 682.295, 818.296 667 C 818.346 644.447, 814.013 629.034, 801.852 608.500 C 787.136 583.651, 755.772 551.640, 698 502.504 C 655.776 466.592, 640.747 449.850, 633.535 430.690 C 630.019 421.349, 629.397 413.104, 631.438 402.906 C 637.250 373.867, 662.674 347.505, 712.344 319.016 C 775.230 282.948, 881.254 257.964, 918.122 270.526 C 926.957 273.536, 933.923 281.890, 933.978 289.540 C 934.017 294.966, 931.005 304.292, 926.048 314.091 C 921.678 322.730, 892.672 371.069, 880.499 390 C 877.846 394.125, 874.286 400.425, 872.588 404 C 869.889 409.680, 869.500 411.572, 869.500 419 C 869.500 426.467, 869.833 428.067, 872.243 432.166 C 880.065 445.473, 897.892 453.312, 920.500 453.387 C 939.317 453.449, 950.391 449.351, 961.824 438.094 C 974.937 425.183, 1008.517 376.108, 1027.234 342.500 C 1048.520 304.281, 1052.042 274.892, 1038.304 250.132 C 1023.220 222.947, 982.573 202.546, 931.434 196.494 C 915.291 194.583, 881.651 193.850, 864.585 195.038" stroke="none" fill="#040404" fill-rule="evenodd"/><path d="M 677 0.575 C 676.175 0.764, 668.975 1.402, 661 1.992 C 615.515 5.358, 569.036 13.421, 525.048 25.577 C 507.053 30.550, 464.769 44.308, 461.426 46.278 C 459.394 47.475, 459.541 47.993, 468.696 71.896 C 473.836 85.314, 477.919 96.399, 477.770 96.529 C 477.622 96.659, 470.075 99.835, 461 103.587 C 439.963 112.284, 399.928 132.238, 380.294 143.814 C 359.229 156.233, 336.465 171.466, 316.610 186.432 C 302.354 197.177, 299.622 198.874, 298.648 197.591 C 291.990 188.818, 267.299 159.081, 266.644 159.046 C 263.618 158.884, 231.476 187.326, 207.476 211.403 C 171.965 247.027, 144.210 280.780, 117.352 321 C 105.221 339.167, 93.582 358.799, 88.205 370.161 C 88.033 370.525, 98.267 376.534, 110.946 383.513 C 123.626 390.493, 134 396.336, 134 396.498 C 134 396.659, 130.209 404.151, 125.576 413.146 C 99.381 464, 78.919 521.571, 66.511 579.324 C 65.445 584.289, 64.404 587.002, 63.665 586.746 C 59.436 585.284, 13.994 576.672, 13.439 577.228 C 12.105 578.562, 6.931 610.749, 4.029 635.770 C -0.136 671.684, -1.307 731.755, 1.471 767 C 3.207 789.019, 7.232 822.225, 10.006 837.419 C 11.103 843.425, 12 849.613, 12 851.169 C 12 852.726, 12.338 853.997, 12.750 853.993 C 13.162 853.989, 24.949 851.751, 38.942 849.019 C 52.935 846.286, 64.478 844.152, 64.592 844.275 C 64.707 844.399, 65.766 849, 66.946 854.500 C 78.925 910.327, 99.413 967.954, 124.975 1017.714 C 130.498 1028.466, 132.455 1033.183, 131.645 1033.796 C 131.015 1034.273, 120.713 1039.993, 108.750 1046.508 C 96.787 1053.023, 87 1058.790, 87 1059.325 C 87 1060.959, 105.817 1092.769, 114.314 1105.500 C 126.335 1123.510, 140.657 1143.577, 147.501 1152 C 150.853 1156.125, 156.718 1163.550, 160.535 1168.500 C 178.601 1191.929, 212.491 1227.121, 242.392 1253.500 C 264.639 1273.126, 264.036 1272.672, 265.384 1270.828 C 265.998 1269.989, 273.467 1260.699, 281.982 1250.183 C 295.494 1233.498, 297.677 1231.220, 299.132 1232.282 C 300.049 1232.952, 308.157 1239.075, 317.150 1245.890 C 336.426 1260.497, 359.175 1275.735, 380.294 1288.186 C 399.510 1299.515, 439.752 1319.621, 460.107 1328.064 L 475.715 1334.537 466.396 1358.518 C 461.271 1371.708, 457.060 1383.041, 457.039 1383.703 C 456.983 1385.426, 463.986 1388.341, 484.500 1395.136 C 558.346 1419.592, 631.758 1431.984, 702.863 1431.996 L 730.227 1432 729.491 1405.500 L 728.755 1379 732.127 1378.990 C 741.029 1378.965, 771.470 1376.777, 788.500 1374.939 C 831.210 1370.329, 877.974 1360.468, 916.479 1347.951 C 923.067 1345.810, 928.749 1344.382, 929.104 1344.779 C 929.460 1345.175, 931.669 1351.350, 934.014 1358.500 C 936.359 1365.650, 940.067 1376.576, 942.254 1382.781 C 945.887 1393.088, 946.414 1394.007, 948.365 1393.425 C 955.404 1391.325, 980.439 1381.525, 998.500 1373.800 C 1055.902 1349.249, 1113.334 1314.768, 1161.299 1276.057 C 1170.538 1268.601, 1179.857 1261.150, 1182.008 1259.500 C 1184.159 1257.850, 1185.923 1256.050, 1185.929 1255.500 C 1185.934 1254.950, 1178.282 1245.737, 1168.923 1235.026 L 1151.906 1215.552 1163.203 1205.144 C 1203.471 1168.045, 1238.601 1126.762, 1269.271 1080.500 C 1275.835 1070.600, 1281.533 1062.587, 1281.935 1062.694 C 1282.336 1062.801, 1292.285 1068.769, 1304.044 1075.957 C 1315.803 1083.145, 1325.891 1088.873, 1326.462 1088.688 C 1329.671 1087.643, 1357.580 1035.584, 1370.307 1006.902 C 1387.014 969.248, 1405.313 914.721, 1413.061 879.500 C 1416.476 863.981, 1423.185 828.813, 1422.784 828.543 C 1422.628 828.438, 1411.025 826.554, 1397 824.357 L 1371.500 820.362 1371.544 816.431 C 1371.568 814.269, 1372.573 804.175, 1373.779 794 C 1374.984 783.825, 1376.425 769.200, 1376.981 761.500 C 1378.304 743.183, 1378.284 688.851, 1376.949 670.187 C 1375.982 656.673, 1372.828 627.032, 1371.418 618.212 L 1370.825 614.500 1396.959 610.505 L 1423.093 606.509 1422.450 602.505 C 1409.759 523.459, 1382.929 444.619, 1345.537 376.500 C 1340.103 366.600, 1334.129 355.688, 1332.262 352.250 C 1330.394 348.813, 1328.400 346, 1327.831 346 C 1327.261 346, 1317.161 351.850, 1305.387 359 C 1293.612 366.150, 1283.645 371.983, 1283.239 371.963 C 1282.832 371.943, 1277.369 364.031, 1271.099 354.381 C 1241.821 309.327, 1205.798 266.379, 1168.020 231.485 C 1159.759 223.855, 1153 217.341, 1153 217.011 C 1153 216.680, 1160.692 207.654, 1170.094 196.954 L 1187.188 177.500 1182.345 173.112 C 1172.513 164.204, 1147.041 144.044, 1131.500 132.870 C 1084.600 99.148, 1033.958 71.574, 977.500 49.019 C 958.419 41.396, 948.288 38.257, 947.107 39.603 C 946.674 40.096, 942.811 50.850, 938.521 63.500 C 934.232 76.150, 930.385 86.878, 929.972 87.339 C 929.560 87.800, 923.660 86.373, 916.861 84.168 C 866.078 67.693, 808.956 57.288, 751.001 53.956 C 740.276 53.339, 731.406 52.739, 731.289 52.623 C 731.173 52.506, 731.397 40.618, 731.789 26.204 L 732.500 -0.002 705.500 0.115 C 690.650 0.179, 677.825 0.387, 677 0.575 M 864.585 195.038 C 806.563 199.074, 746.529 214.351, 682 241.501 C 578.009 285.254, 515 353.741, 515 423.021 C 515 447.036, 522.142 467.646, 537.689 488.500 C 545.406 498.851, 581.804 535.666, 599.535 551.055 C 606.154 556.800, 621.229 569.797, 633.035 579.939 C 673.373 614.590, 694.454 637.686, 701.696 655.164 C 705.500 664.345, 706.009 676.331, 702.942 684.469 C 696.819 700.716, 675.314 711.386, 641.500 714.953 C 620.056 717.215, 557.794 717.971, 391 717.995 C 217.826 718.021, 202.604 718.284, 185.500 721.554 C 167.812 724.936, 152.603 735.428, 148.154 747.319 C 145.545 754.291, 145.359 762.764, 147.667 769.537 C 150.938 779.137, 163.179 787.955, 178.088 791.451 C 193.128 794.978, 205.765 795.149, 421.500 794.732 C 608.215 794.371, 635.587 794.126, 651 792.679 C 669.033 790.987, 689.704 788.356, 692.763 787.364 C 693.718 787.054, 692.479 788.533, 690.008 790.650 C 664.157 812.804, 637.281 839.228, 620.020 859.462 C 572.979 914.605, 545.434 972.521, 538.924 1029.976 C 537.276 1044.515, 538.270 1070.696, 540.945 1083.199 C 555.660 1151.980, 616.834 1202.469, 703 1216.949 C 735.845 1222.469, 736.851 1222.500, 881.500 1222.500 C 1019.849 1222.500, 1023.026 1222.419, 1038.613 1218.471 C 1041.851 1217.651, 1048.166 1215.186, 1052.648 1212.992 C 1067.178 1205.880, 1074.394 1195.299, 1074.466 1181 C 1074.510 1172.136, 1072.072 1166.277, 1065.962 1160.561 C 1057.742 1152.872, 1045.206 1148.874, 1023.573 1147.041 C 1016.629 1146.453, 961.160 1145.838, 893 1145.595 C 815.227 1145.317, 770.891 1144.785, 764 1144.049 C 740.995 1141.590, 715.441 1134.413, 701.596 1126.523 C 679.723 1114.059, 664.884 1095.290, 658.881 1072.500 C 654.332 1055.226, 655.477 1026.561, 661.569 1005.235 C 684.844 923.753, 762.612 838.202, 868.711 777.364 C 929.829 742.319, 996.635 715.372, 1054 702.627 C 1073.715 698.247, 1083.940 696.870, 1101 696.299 C 1114.460 695.849, 1118.693 696.053, 1123.975 697.410 C 1153.400 704.970, 1149.435 726.039, 1106.175 792 C 1078.235 834.601, 1073.605 853.447, 1087.634 867.476 C 1096.915 876.757, 1111.011 881.385, 1130 881.385 C 1163.890 881.385, 1173.794 872.404, 1214.242 805 C 1245.942 752.173, 1254.569 731.980, 1255.683 708 C 1256.604 688.158, 1251.664 674.776, 1238.522 661.521 C 1206.546 629.271, 1141.857 616.713, 1058.500 626.575 C 985.900 635.164, 909.670 659.290, 833.596 697.754 L 810.364 709.500 812.664 702.901 C 816.966 690.558, 818.262 682.295, 818.296 667 C 818.346 644.447, 814.013 629.034, 801.852 608.500 C 787.136 583.651, 755.772 551.640, 698 502.504 C 655.776 466.592, 640.747 449.850, 633.535 430.690 C 630.019 421.349, 629.397 413.104, 631.438 402.906 C 637.250 373.867, 662.674 347.505, 712.344 319.016 C 775.230 282.948, 881.254 257.964, 918.122 270.526 C 926.957 273.536, 933.923 281.890, 933.978 289.540 C 934.017 294.966, 931.005 304.292, 926.048 314.091 C 921.678 322.730, 892.672 371.069, 880.499 390 C 877.846 394.125, 874.286 400.425, 872.588 404 C 869.889 409.680, 869.500 411.572, 869.500 419 C 869.500 426.467, 869.833 428.067, 872.243 432.166 C 880.065 445.473, 897.892 453.312, 920.500 453.387 C 939.317 453.449, 950.391 449.351, 961.824 438.094 C 974.937 425.183, 1008.517 376.108, 1027.234 342.500 C 1048.520 304.281, 1052.042 274.892, 1038.304 250.132 C 1023.220 222.947, 982.573 202.546, 931.434 196.494 C 915.291 194.583, 881.651 193.850, 864.585 195.038" stroke="none" fill="#fbfbfb" fill-rule="evenodd"/></svg>